<svg class="animated" id="freepik_stories-kitsune-mask" xmlns="http://www.w3.org/2000/svg" viewBox="0 0 500 500" version="1.1" xmlns:xlink="http://www.w3.org/1999/xlink" xmlns:svgjs="http://svgjs.com/svgjs"><style>svg#freepik_stories-kitsune-mask:not(.animated) .animable {opacity: 0;}svg#freepik_stories-kitsune-mask.animated #freepik--kitsune-mask--inject-110 {animation: 3s Infinite  linear floating;animation-delay: 0s;}            @keyframes floating {                0% {                    opacity: 1;                    transform: translateY(0px);                }                50% {                    transform: translateY(-10px);                }                100% {                    opacity: 1;                    transform: translateY(0px);                }            }        </style><g id="freepik--background-complete--inject-110" class="animable" style="transform-origin: 250px 243.734px;"><rect y="380.25" width="500" height="0.25" style="fill: rgb(230, 230, 230); transform-origin: 250px 380.375px;" id="elleryprtr85" class="animable"></rect><path d="M237,335.65H43.91a5.71,5.71,0,0,1-5.7-5.71V58.51a5.71,5.71,0,0,1,5.7-5.71H237a5.71,5.71,0,0,1,5.71,5.71V329.94A5.71,5.71,0,0,1,237,335.65ZM43.91,53.05a5.46,5.46,0,0,0-5.45,5.46V329.94a5.46,5.46,0,0,0,5.45,5.46H237a5.47,5.47,0,0,0,5.46-5.46V58.51A5.47,5.47,0,0,0,237,53.05Z" style="fill: rgb(230, 230, 230); transform-origin: 140.46px 194.225px;" id="elfxaa2eo3scg" class="animable"></path><path d="M453.31,335.65H260.21a5.72,5.72,0,0,1-5.71-5.71V58.51a5.72,5.72,0,0,1,5.71-5.71h193.1A5.71,5.71,0,0,1,459,58.51V329.94A5.71,5.71,0,0,1,453.31,335.65ZM260.21,53.05a5.47,5.47,0,0,0-5.46,5.46V329.94a5.47,5.47,0,0,0,5.46,5.46h193.1a5.47,5.47,0,0,0,5.46-5.46V58.51a5.47,5.47,0,0,0-5.46-5.46Z" style="fill: rgb(230, 230, 230); transform-origin: 356.75px 194.225px;" id="elrs6x8t0hsuo" class="animable"></path><path d="M464,137.9c-.62-11.48-7.16-23.44-22.72-22.6a37.27,37.27,0,0,0-9.42,1.87,32.24,32.24,0,0,0,1.22-3.76c3.74-15.13-6.79-23.79-17.95-26.55s-24.51,0-28.25,15.11a33.49,33.49,0,0,0-.86,5.58l-.12-.1c-12.62-9.13-24.59-2.62-31.33,6.7S345.33,136.87,358,146a36.7,36.7,0,0,0,8.5,4.48,31.94,31.94,0,0,0-3.31,2.16c-12.43,9.4-9.7,22.75-2.77,31.92s19.05,15.43,31.47,6a37.07,37.07,0,0,0,6.77-6.82,31.39,31.39,0,0,0,1.1,3.8c5.35,14.63,18.92,15.92,29.72,12s20.32-13.7,15-28.33a37,37,0,0,0-4.55-8.46,32.86,32.86,0,0,0,4,.06C459.37,162,464.57,149.38,464,137.9Z" style="fill: rgb(240, 240, 240); transform-origin: 406.522px 143.677px;" id="elsves14ebo8" class="animable"></path><path d="M416.92,146.24A10.87,10.87,0,1,1,409,133.07,10.88,10.88,0,0,1,416.92,146.24Z" style="fill: rgb(230, 230, 230); transform-origin: 406.37px 143.617px;" id="elj1ulfsbkpsh" class="animable"></path><path d="M415.14,125.43a4.15,4.15,0,1,1-3-5A4.15,4.15,0,0,1,415.14,125.43Z" style="fill: rgb(230, 230, 230); transform-origin: 411.107px 124.45px;" id="el8gwxe7h8okb" class="animable"></path><path d="M405.64,163.81a4.15,4.15,0,1,1-3-5A4.13,4.13,0,0,1,405.64,163.81Z" style="fill: rgb(230, 230, 230); transform-origin: 401.61px 162.829px;" id="eljwpuafc27pc" class="animable"></path><polygon points="402.03 162.92 401.2 162.71 410.7 124.33 411.52 124.54 402.03 162.92" style="fill: rgb(230, 230, 230); transform-origin: 406.36px 143.625px;" id="elytmkpta69r" class="animable"></polygon><path d="M424.55,152.4a4.15,4.15,0,1,1,5-3A4.15,4.15,0,0,1,424.55,152.4Z" style="fill: rgb(230, 230, 230); transform-origin: 425.53px 148.368px;" id="elwk1p4ymks7q" class="animable"></path><path d="M386.18,142.91a4.15,4.15,0,1,1,5-3A4.15,4.15,0,0,1,386.18,142.91Z" style="fill: rgb(230, 230, 230); transform-origin: 387.16px 138.878px;" id="elcaw3n5hxvkf" class="animable"></path><polygon points="425.45 148.79 387.07 139.29 387.28 138.46 425.65 147.96 425.45 148.79" style="fill: rgb(230, 230, 230); transform-origin: 406.36px 143.625px;" id="elzbqo75w1syg" class="animable"></polygon><path d="M425.43,137a4.15,4.15,0,1,1,1.41-5.7A4.16,4.16,0,0,1,425.43,137Z" style="fill: rgb(230, 230, 230); transform-origin: 423.286px 133.446px;" id="eln2wnytuuyn" class="animable"></path><path d="M391.58,157.39a4.15,4.15,0,1,1,1.41-5.7A4.15,4.15,0,0,1,391.58,157.39Z" style="fill: rgb(230, 230, 230); transform-origin: 389.438px 153.836px;" id="el1v1wvlh3u5v" class="animable"></path><g id="elp4hkjcnk91g"><rect x="386.59" y="143.2" width="39.54" height="0.85" style="fill: rgb(230, 230, 230); transform-origin: 406.36px 143.625px; transform: rotate(-31.13deg);" class="animable"></rect></g><path d="M413,162.7a4.15,4.15,0,1,1,5.7,1.41A4.16,4.16,0,0,1,413,162.7Z" style="fill: rgb(230, 230, 230); transform-origin: 416.554px 160.556px;" id="elhfue399r3zi" class="animable"></path><path d="M392.6,128.84a4.15,4.15,0,1,1,5.7,1.41A4.14,4.14,0,0,1,392.6,128.84Z" style="fill: rgb(230, 230, 230); transform-origin: 396.154px 126.7px;" id="elylfqj9i8z0o" class="animable"></path><g id="elkh3l270jvfi"><rect x="405.94" y="123.86" width="0.85" height="39.54" style="fill: rgb(230, 230, 230); transform-origin: 406.365px 143.63px; transform: rotate(-31.1deg);" class="animable"></rect></g><path d="M131.3,393.06c-.36-6.62-4.13-13.52-13.1-13a21.31,21.31,0,0,0-5.43,1.07,18.08,18.08,0,0,0,.7-2.16c2.16-8.72-3.91-13.72-10.34-15.31s-14.13,0-16.29,8.72a20.49,20.49,0,0,0-.5,3.21l-.06-.06C79,370.24,72.1,374,68.21,379.36s-5.3,13.1,2,18.37a21.31,21.31,0,0,0,4.9,2.58,18.49,18.49,0,0,0-1.91,1.25C66,407,67.59,414.67,71.59,420s11,8.9,18.14,3.48a21,21,0,0,0,3.9-3.93,21.36,21.36,0,0,0,.63,2.19c3.09,8.43,10.91,9.18,17.14,6.9s11.72-7.9,8.63-16.33a21.22,21.22,0,0,0-2.62-4.88,19.36,19.36,0,0,0,2.28,0C128.66,406.94,131.66,399.68,131.3,393.06Z" style="fill: rgb(240, 240, 240); transform-origin: 98.1697px 396.432px;" id="el4kdrxswvqc8" class="animable"></path><path d="M104.19,397.86a6.27,6.27,0,1,1-4.58-7.59A6.27,6.27,0,0,1,104.19,397.86Z" style="fill: rgb(230, 230, 230); transform-origin: 98.103px 396.356px;" id="elzd5bdlb6mu" class="animable"></path><path d="M103.16,385.87a2.4,2.4,0,1,1-1.75-2.9A2.39,2.39,0,0,1,103.16,385.87Z" style="fill: rgb(230, 230, 230); transform-origin: 100.83px 385.299px;" id="elnq3de10p4t9" class="animable"></path><path d="M97.69,408a2.4,2.4,0,1,1-1.75-2.9A2.39,2.39,0,0,1,97.69,408Z" style="fill: rgb(230, 230, 230); transform-origin: 95.3601px 407.429px;" id="elkf5xd2wrfee" class="animable"></path><polygon points="95.6 407.48 95.12 407.36 100.6 385.24 101.08 385.35 95.6 407.48" style="fill: rgb(230, 230, 230); transform-origin: 98.1px 396.36px;" id="elrnyftdgp67" class="animable"></polygon><path d="M108.59,401.42a2.4,2.4,0,1,1,2.9-1.75A2.4,2.4,0,0,1,108.59,401.42Z" style="fill: rgb(230, 230, 230); transform-origin: 109.161px 399.089px;" id="elgggz9af33dt" class="animable"></path><path d="M86.46,395.94a2.39,2.39,0,1,1,2.9-1.74A2.39,2.39,0,0,1,86.46,395.94Z" style="fill: rgb(230, 230, 230); transform-origin: 87.041px 393.622px;" id="elq3isbygsr8k" class="animable"></path><g id="eldaqmi1qu1qj"><rect x="97.85" y="384.96" width="0.49" height="22.79" style="fill: rgb(230, 230, 230); transform-origin: 98.095px 396.355px; transform: rotate(-76.1deg);" class="animable"></rect></g><path d="M109.09,392.52a2.39,2.39,0,1,1,.82-3.29A2.39,2.39,0,0,1,109.09,392.52Z" style="fill: rgb(230, 230, 230); transform-origin: 107.865px 390.468px;" id="el35hnhayecdz" class="animable"></path><path d="M89.58,404.29a2.39,2.39,0,1,1,.81-3.28A2.39,2.39,0,0,1,89.58,404.29Z" style="fill: rgb(230, 230, 230); transform-origin: 88.3436px 402.245px;" id="eljcuukebpy" class="animable"></path><g id="eljbb7rvgxaen"><rect x="86.7" y="396.11" width="22.79" height="0.49" style="fill: rgb(230, 230, 230); transform-origin: 98.095px 396.355px; transform: rotate(-31.1593deg);" class="animable"></rect></g><path d="M101.94,407.35a2.39,2.39,0,1,1,3.28.82A2.39,2.39,0,0,1,101.94,407.35Z" style="fill: rgb(230, 230, 230); transform-origin: 103.99px 406.121px;" id="elu9gngt5nbtd" class="animable"></path><path d="M90.16,387.84a2.4,2.4,0,1,1,3.29.81A2.4,2.4,0,0,1,90.16,387.84Z" style="fill: rgb(230, 230, 230); transform-origin: 92.2114px 386.594px;" id="elyyaqf513dl" class="animable"></path><g id="elyo8sd34zkdk"><rect x="97.85" y="384.96" width="0.49" height="22.79" style="fill: rgb(230, 230, 230); transform-origin: 98.095px 396.355px; transform: rotate(-31.1deg);" class="animable"></rect></g><path d="M177.42,66.42c-.29-5.23-3.27-10.68-10.35-10.3a17.06,17.06,0,0,0-4.3.85,14.21,14.21,0,0,0,.56-1.71c1.7-6.89-3.09-10.84-8.18-12.1s-11.17,0-12.87,6.89a15.84,15.84,0,0,0-.4,2.54l0,0c-5.75-4.17-11.21-1.2-14.28,3.05S123.36,66,129.12,70.11a16.18,16.18,0,0,0,3.87,2,14.56,14.56,0,0,0-1.51,1c-5.66,4.28-4.42,10.37-1.26,14.54s8.68,7,14.34,2.75a16.45,16.45,0,0,0,3.08-3.1,15.74,15.74,0,0,0,.5,1.73c2.44,6.66,8.63,7.25,13.55,5.45s9.26-6.24,6.82-12.91a16.77,16.77,0,0,0-2.07-3.85,15.52,15.52,0,0,0,1.8,0C175.33,77.39,177.7,71.65,177.42,66.42Z" style="fill: rgb(240, 240, 240); transform-origin: 151.245px 69.0415px;" id="eljpxa0nr8xe" class="animable"></path><path d="M156,70.22a5,5,0,1,1-3.62-6A5,5,0,0,1,156,70.22Z" style="fill: rgb(230, 230, 230); transform-origin: 151.136px 69.0627px;" id="elkepixg411rp" class="animable"></path><path d="M155.18,60.74a1.9,1.9,0,1,1-1.39-2.29A1.9,1.9,0,0,1,155.18,60.74Z" style="fill: rgb(230, 230, 230); transform-origin: 153.333px 60.2942px;" id="el1ucx0ebl0vf" class="animable"></path><path d="M150.85,78.23a1.89,1.89,0,1,1-1.38-2.29A1.9,1.9,0,0,1,150.85,78.23Z" style="fill: rgb(230, 230, 230); transform-origin: 149.015px 77.7746px;" id="elg9moti59k1" class="animable"></path><polygon points="149.2 77.82 148.82 77.73 153.15 60.24 153.53 60.33 149.2 77.82" style="fill: rgb(230, 230, 230); transform-origin: 151.175px 69.03px;" id="elabkwskwkdmq" class="animable"></polygon><path d="M159.47,73a1.89,1.89,0,1,1,2.29-1.38A1.89,1.89,0,0,1,159.47,73Z" style="fill: rgb(230, 230, 230); transform-origin: 159.925px 71.1657px;" id="elycr9kbvmpv" class="animable"></path><path d="M142,68.7a1.89,1.89,0,1,1,2.29-1.38A1.88,1.88,0,0,1,142,68.7Z" style="fill: rgb(230, 230, 230); transform-origin: 142.455px 66.8668px;" id="el4hvzkbbm00b" class="animable"></path><g id="elkvmu6o0ke3"><rect x="150.98" y="60.02" width="0.39" height="18.02" style="fill: rgb(230, 230, 230); transform-origin: 151.175px 69.03px; transform: rotate(-76.1deg);" class="animable"></rect></g><path d="M159.87,66a1.89,1.89,0,1,1,.64-2.6A1.89,1.89,0,0,1,159.87,66Z" style="fill: rgb(230, 230, 230); transform-origin: 158.895px 64.3811px;" id="elpl2xf3q6hqm" class="animable"></path><path d="M144.44,75.3a1.89,1.89,0,1,1,.64-2.59A1.88,1.88,0,0,1,144.44,75.3Z" style="fill: rgb(230, 230, 230); transform-origin: 143.462px 73.6838px;" id="elrphg8agng7" class="animable"></path><g id="el4bbjq0zu5tn"><rect x="142.17" y="68.84" width="18.02" height="0.39" style="fill: rgb(230, 230, 230); transform-origin: 151.18px 69.035px; transform: rotate(-31.13deg);" class="animable"></rect></g><path d="M154.21,77.72a1.89,1.89,0,1,1,2.6.64A1.9,1.9,0,0,1,154.21,77.72Z" style="fill: rgb(230, 230, 230); transform-origin: 155.829px 76.7428px;" id="el8ffhphi95di" class="animable"></path><path d="M144.9,62.29a1.89,1.89,0,1,1,2.6.65A1.88,1.88,0,0,1,144.9,62.29Z" style="fill: rgb(230, 230, 230); transform-origin: 146.523px 61.3239px;" id="elyixs794wg8t" class="animable"></path><g id="elbewhr33rx5"><rect x="150.98" y="60.02" width="0.39" height="18.02" style="fill: rgb(230, 230, 230); transform-origin: 151.175px 69.03px; transform: rotate(-31.1deg);" class="animable"></rect></g><path d="M458.62,401.28c-.36-6.62-4.13-13.52-13.1-13a21.34,21.34,0,0,0-5.43,1.08,18.22,18.22,0,0,0,.7-2.17c2.16-8.72-3.91-13.71-10.34-15.31s-14.14,0-16.29,8.72a19.38,19.38,0,0,0-.5,3.21.18.18,0,0,0-.07,0c-7.27-5.27-14.17-1.51-18.06,3.86s-5.3,13.1,2,18.36a21.31,21.31,0,0,0,4.9,2.58,18.49,18.49,0,0,0-1.91,1.25c-7.17,5.42-5.59,13.12-1.59,18.4s11,8.9,18.14,3.48a21.36,21.36,0,0,0,3.9-3.93,19.1,19.1,0,0,0,.63,2.19c3.09,8.44,10.91,9.18,17.14,6.9s11.71-7.89,8.63-16.33a21.22,21.22,0,0,0-2.62-4.88,19.35,19.35,0,0,0,2.28,0C456,415.16,459,407.9,458.62,401.28Z" style="fill: rgb(240, 240, 240); transform-origin: 425.491px 404.67px;" id="elv55wj614yy" class="animable"></path><path d="M431.5,406.09a6.27,6.27,0,1,1-4.58-7.59A6.27,6.27,0,0,1,431.5,406.09Z" style="fill: rgb(230, 230, 230); transform-origin: 425.413px 404.586px;" id="elc1s5ubfrk8" class="animable"></path><path d="M430.48,394.09a2.4,2.4,0,1,1-1.75-2.89A2.39,2.39,0,0,1,430.48,394.09Z" style="fill: rgb(230, 230, 230); transform-origin: 428.148px 393.528px;" id="elbfa9cuwwwjc" class="animable"></path><path d="M425,416.22a2.39,2.39,0,1,1-1.74-2.9A2.38,2.38,0,0,1,425,416.22Z" style="fill: rgb(230, 230, 230); transform-origin: 422.683px 415.639px;" id="elvqgmcipldng" class="animable"></path><polygon points="422.92 415.7 422.44 415.59 427.92 393.46 428.39 393.58 422.92 415.7" style="fill: rgb(230, 230, 230); transform-origin: 425.415px 404.58px;" id="elcu11y1g5nyt" class="animable"></polygon><path d="M435.91,409.64a2.39,2.39,0,1,1,2.89-1.75A2.39,2.39,0,0,1,435.91,409.64Z" style="fill: rgb(230, 230, 230); transform-origin: 436.479px 407.319px;" id="elcpgognml9r6" class="animable"></path><path d="M413.78,404.17a2.4,2.4,0,1,1,2.9-1.75A2.4,2.4,0,0,1,413.78,404.17Z" style="fill: rgb(230, 230, 230); transform-origin: 414.351px 401.839px;" id="elbo84pxfa708" class="animable"></path><polygon points="436.42 407.56 414.3 402.08 414.42 401.61 436.54 407.08 436.42 407.56" style="fill: rgb(230, 230, 230); transform-origin: 425.42px 404.585px;" id="el9o4741vi0ef" class="animable"></polygon><path d="M436.41,400.74a2.39,2.39,0,0,1-2.47-4.1,2.39,2.39,0,1,1,2.47,4.1Z" style="fill: rgb(230, 230, 230); transform-origin: 435.18px 398.687px;" id="elt7ydfvjfc7k" class="animable"></path><path d="M416.9,412.52a2.4,2.4,0,1,1,.81-3.29A2.39,2.39,0,0,1,416.9,412.52Z" style="fill: rgb(230, 230, 230); transform-origin: 415.656px 410.469px;" id="ell3fz4fokby" class="animable"></path><g id="el9p82oza7ims"><rect x="414.02" y="404.34" width="22.79" height="0.49" style="fill: rgb(230, 230, 230); transform-origin: 425.415px 404.585px; transform: rotate(-31.13deg);" class="animable"></rect></g><path d="M429.26,415.58a2.39,2.39,0,1,1,3.28.81A2.39,2.39,0,0,1,429.26,415.58Z" style="fill: rgb(230, 230, 230); transform-origin: 431.305px 414.344px;" id="eljpyo1p29zx" class="animable"></path><path d="M417.48,396.06a2.39,2.39,0,1,1,3.29.81A2.4,2.4,0,0,1,417.48,396.06Z" style="fill: rgb(230, 230, 230); transform-origin: 419.528px 394.826px;" id="elek1lqx2ne8v" class="animable"></path><g id="el8b0ynpygnrh"><rect x="425.17" y="393.18" width="0.49" height="22.79" style="fill: rgb(230, 230, 230); transform-origin: 425.415px 404.575px; transform: rotate(-31.1deg);" class="animable"></rect></g><path d="M266.23,434.17c-.88,0-9.41.67-10.61,10.57h-1.4s.41-9.66-10.61-10.17l.06-1.53c.88,0,9.07-.37,10.27-10.26h1.4s-1,8.92,10.89,10.31Z" style="fill: rgb(230, 230, 230); transform-origin: 254.92px 433.76px;" id="elhe47fypige" class="animable"></path><path d="M455.42,226.75c-.88,0-9.41.67-10.61,10.56h-1.4s.42-9.65-10.61-10.16l.07-1.53c.87,0,9.06-.37,10.26-10.27h1.4s-.95,8.92,10.89,10.32Z" style="fill: rgb(230, 230, 230); transform-origin: 444.11px 226.33px;" id="elgiiu9ur1xfr" class="animable"></path><path d="M358.91,67c-.87,0-9.41.66-10.61,10.56h-1.4s.42-9.65-10.6-10.17l.06-1.52c.87,0,9.06-.38,10.27-10.27H348s-.94,8.92,10.89,10.32Z" style="fill: rgb(230, 230, 230); transform-origin: 347.605px 66.58px;" id="els3li1cm1g98" class="animable"></path><path d="M231.94,429.92a5.59,5.59,0,0,0-5.31,5.28h-.69s.2-4.83-5.31-5.08l0-.77c.44,0,4.54-.18,5.14-5.13h.69s-.47,4.46,5.45,5.16Z" style="fill: rgb(230, 230, 230); transform-origin: 226.285px 429.71px;" id="el7j39d6ub4nh" class="animable"></path><path d="M132.79,176.7c-6.11-9.74-17.62-17-30.82-8.76a36.91,36.91,0,0,0-7.34,6.2,31.7,31.7,0,0,0-.76-3.88c-4.05-15-17.46-17.52-28.56-14.53S43.87,167.6,47.92,182.64a33.53,33.53,0,0,0,1.95,5.29l-.15,0c-15.47-1.88-22.78,9.62-24.17,21s3,24.33,18.44,26.21a36.94,36.94,0,0,0,9.6-.2,35.51,35.51,0,0,0-1.85,3.49c-6.31,14.24,2.54,24.6,13.05,29.27s24.14,4.27,30.46-10a37.15,37.15,0,0,0,2.61-9.24,30.7,30.7,0,0,0,2.8,2.79c11.77,10.21,24.27,4.77,31.8-3.92s11.14-21.83-.63-32a36.74,36.74,0,0,0-8.07-5.2,33.82,33.82,0,0,0,3.48-1.86C140.44,200,138.89,186.44,132.79,176.7Z" style="fill: rgb(240, 240, 240); transform-origin: 82.3664px 212.494px;" id="elyjxupj14u4" class="animable"></path><path d="M95.69,206.78a10.87,10.87,0,1,1-13.33-7.67A10.88,10.88,0,0,1,95.69,206.78Z" style="fill: rgb(230, 230, 230); transform-origin: 85.1933px 209.605px;" id="el5u9njcmn0q2" class="animable"></path><path d="M84.05,189.44A4.15,4.15,0,1,1,79,186.52,4.14,4.14,0,0,1,84.05,189.44Z" style="fill: rgb(230, 230, 230); transform-origin: 80.0473px 190.535px;" id="elmswrg23no8" class="animable"></path><g id="el5ej0olk2xe"><circle cx="90.33" cy="228.7" r="4.15" style="fill: rgb(230, 230, 230); transform-origin: 90.33px 228.7px; transform: rotate(-25.3deg);" class="animable"></circle></g><polygon points="90.74 228.59 89.92 228.81 79.63 190.64 80.45 190.41 90.74 228.59" style="fill: rgb(230, 230, 230); transform-origin: 85.185px 209.61px;" id="eldhse9grdx9k" class="animable"></polygon><path d="M105.35,208.47a4.15,4.15,0,1,1,2.93-5.08A4.14,4.14,0,0,1,105.35,208.47Z" style="fill: rgb(230, 230, 230); transform-origin: 104.272px 204.463px;" id="elcr37ovynux5" class="animable"></path><path d="M67.18,218.76a4.15,4.15,0,1,1,2.93-5.08A4.15,4.15,0,0,1,67.18,218.76Z" style="fill: rgb(230, 230, 230); transform-origin: 66.101px 214.753px;" id="el72q9zlplsv3" class="animable"></path><polygon points="104.39 204.88 66.21 215.17 65.99 214.34 104.16 204.05 104.39 204.88" style="fill: rgb(230, 230, 230); transform-origin: 85.19px 209.61px;" id="el3bta18170xd" class="animable"></polygon><path d="M98.64,194.55a4.15,4.15,0,1,1-1.52-5.67A4.15,4.15,0,0,1,98.64,194.55Z" style="fill: rgb(230, 230, 230); transform-origin: 95.0462px 192.475px;" id="eljtobbxtipwq" class="animable"></path><path d="M78.93,228.82a4.16,4.16,0,1,1-1.53-5.67A4.15,4.15,0,0,1,78.93,228.82Z" style="fill: rgb(230, 230, 230); transform-origin: 75.3219px 226.753px;" id="elm9xsf4z3ldb" class="animable"></path><g id="elsonqfqor5aq"><rect x="65.42" y="209.18" width="39.54" height="0.85" style="fill: rgb(230, 230, 230); transform-origin: 85.19px 209.605px; transform: rotate(-60.1135deg);" class="animable"></rect></g><path d="M100.25,223.07a4.15,4.15,0,1,1,5.67-1.53A4.16,4.16,0,0,1,100.25,223.07Z" style="fill: rgb(230, 230, 230); transform-origin: 102.321px 219.472px;" id="elr8qnowttz5" class="animable"></path><path d="M66,203.35a4.15,4.15,0,1,1,5.67-1.53A4.15,4.15,0,0,1,66,203.35Z" style="fill: rgb(230, 230, 230); transform-origin: 68.071px 199.754px;" id="elmcuwsu0lbys" class="animable"></path><g id="el9njwne6jzip"><rect x="84.76" y="189.84" width="0.85" height="39.54" style="fill: rgb(230, 230, 230); transform-origin: 85.185px 209.61px; transform: rotate(-60.09deg);" class="animable"></rect></g></g><g id="freepik--Shadow--inject-110" class="animable" style="transform-origin: 255.375px 454.435px;"><path d="M464.25,454.44c0,3.38-93.52,6.13-208.87,6.13S46.5,457.82,46.5,454.44,140,448.3,255.38,448.3,464.25,451.05,464.25,454.44Z" style="fill: rgb(245, 245, 245); transform-origin: 255.375px 454.435px;" id="ele364akg86n" class="animable"></path></g><g id="freepik--Stars--inject-110" class="animable" style="transform-origin: 253.27px 241.465px;"><path d="M107.64,127.3c-.88,0-9.41.67-10.61,10.56h-1.4s.42-9.65-10.61-10.16l.07-1.53c.87,0,9.06-.37,10.26-10.27h1.4s-1,8.92,10.89,10.32Z" style="fill: rgb(0, 255, 136); transform-origin: 96.33px 126.88px;" id="elc8ggbl8tdf" class="animable"></path><path d="M421.52,362.92c-.88,0-9.41.67-10.61,10.56h-1.4s.42-9.65-10.6-10.16l.06-1.53c.87,0,9.06-.37,10.26-10.27h1.4s-.95,8.93,10.89,10.32Z" style="fill: rgb(0, 255, 136); transform-origin: 410.215px 362.5px;" id="elj3zakxwghjl" class="animable"></path><path d="M118.34,113.7a4.17,4.17,0,0,0-4,3.93h-.52s.16-3.59-3.94-3.78l0-.57a3.94,3.94,0,0,0,3.82-3.83h.52s-.35,3.33,4,3.85Z" style="fill: rgb(0, 255, 136); transform-origin: 114.11px 113.54px;" id="elbg1ie7fm269" class="animable"></path></g><g id="freepik--Circle--inject-110" class="animable" style="transform-origin: 250px 254.14px;"><ellipse cx="250" cy="254.14" rx="155.49" ry="164.28" style="fill: rgb(0, 255, 136); transform-origin: 250px 254.14px;" id="elsnafosc66g" class="animable"></ellipse></g><g id="freepik--kitsune-mask--inject-110" class="animable animator-active" style="transform-origin: 251.462px 271.76px;"><path d="M143.23,411.29a120.56,120.56,0,0,1,13.13-144.88l8.14,7.4a109.58,109.58,0,0,0-11.94,131.66Z" style="fill: rgb(38, 50, 56); transform-origin: 144.744px 338.85px;" id="elavf5i5nvvgn" class="animable"></path><path d="M142.69,411.48l14.37.14c3.63,3.24,7.31,6.5,11.65,8.68s9.5,3.17,14.1,1.61a33,33,0,0,1-6.65,10.69c-1,1.07-3.29,3.23-3.29,3.23a29.78,29.78,0,0,1-7.56-3,21.57,21.57,0,0,0,4.75,6.37,32.3,32.3,0,0,1-11.44,10.69,3.92,3.92,0,0,1-5.8-.85A40.85,40.85,0,0,1,142.69,411.48Z" style="fill: rgb(38, 50, 56); transform-origin: 162.199px 431.145px;" id="elgap1o230gkv" class="animable"></path><g id="elqup35cezp5h"><path d="M165.31,432.82l-7.8-7.92s3.78,10.73,12.55,14.29A31.68,31.68,0,0,1,165.31,432.82Z" style="opacity: 0.3; transform-origin: 163.785px 432.045px;" class="animable"></path></g><g id="elnywi0dbfycp"><circle cx="145.07" cy="404.97" r="18.06" style="fill: rgb(0, 255, 136); transform-origin: 145.07px 404.97px; transform: rotate(-53.72deg);" class="animable"></circle></g><g id="elx96qr9c9yf"><rect x="124.09" y="402.33" width="42.63" height="7.2" rx="3.1" style="fill: rgb(0, 255, 136); transform-origin: 145.405px 405.93px; transform: rotate(155.25deg);" class="animable"></rect></g><path d="M146.59,414.82a3.18,3.18,0,1,0,1.56-4.22A3.17,3.17,0,0,0,146.59,414.82Z" style="fill: rgb(38, 50, 56); transform-origin: 149.477px 413.489px;" id="el9u60p6e7uii" class="animable"></path><path d="M154.49,419.67l-3.29-5.05-2.22,1,1.58,5.9A9.43,9.43,0,0,0,154.49,419.67Z" style="fill: rgb(38, 50, 56); transform-origin: 151.735px 418.07px;" id="elzz7u4glset" class="animable"></path><g id="elyi7amhxef4"><rect x="124.09" y="402.33" width="42.63" height="7.2" rx="3.1" style="opacity: 0.2; transform-origin: 145.405px 405.93px; transform: rotate(155.25deg);" class="animable"></rect></g><path d="M123.07,408.07a.5.5,0,0,1-.49-.45,21.83,21.83,0,0,1,8.93-19.78.5.5,0,0,1,.58.82,20.81,20.81,0,0,0-8.52,18.85.5.5,0,0,1-.44.55Z" style="fill: rgb(0, 255, 136); transform-origin: 127.391px 397.909px;" id="el6uv3hre2zvs" class="animable"></path><path d="M362.33,411.29,353,405.47a109.58,109.58,0,0,0-11.94-131.66l8.14-7.4a120.56,120.56,0,0,1,13.13,144.88Z" style="fill: rgb(38, 50, 56); transform-origin: 360.816px 338.85px;" id="elwe0105q0xf" class="animable"></path><path d="M362.87,411.48l-14.37.14c-3.63,3.24-7.31,6.5-11.65,8.68s-9.5,3.17-14.1,1.61a32.82,32.82,0,0,0,6.66,10.69c1,1.07,3.28,3.23,3.28,3.23a29.92,29.92,0,0,0,7.57-3,21.78,21.78,0,0,1-4.76,6.37,32.3,32.3,0,0,0,11.44,10.69,3.92,3.92,0,0,0,5.8-.85A40.85,40.85,0,0,0,362.87,411.48Z" style="fill: rgb(38, 50, 56); transform-origin: 343.361px 431.145px;" id="elzfoj4vat7ts" class="animable"></path><g id="elru9flqn7kj"><path d="M340.26,432.82l7.8-7.92s-3.79,10.73-12.56,14.29A31.58,31.58,0,0,0,340.26,432.82Z" style="opacity: 0.3; transform-origin: 341.78px 432.045px;" class="animable"></path></g><g id="elx25sgi1fuq"><circle cx="360.5" cy="404.97" r="18.06" style="fill: rgb(0, 255, 136); transform-origin: 360.5px 404.97px; transform: rotate(-7.75deg);" class="animable"></circle></g><g id="elppnbkbq6v4a"><rect x="338.84" y="402.33" width="42.63" height="7.2" rx="3.1" style="fill: rgb(0, 255, 136); transform-origin: 360.155px 405.93px; transform: rotate(24.75deg);" class="animable"></rect></g><path d="M359,414.82a3.19,3.19,0,1,1-1.56-4.22A3.19,3.19,0,0,1,359,414.82Z" style="fill: rgb(38, 50, 56); transform-origin: 356.099px 413.494px;" id="elxjcqd359zfq" class="animable"></path><path d="M351.08,419.67l3.28-5.05,2.22,1-1.58,5.9A9.43,9.43,0,0,1,351.08,419.67Z" style="fill: rgb(38, 50, 56); transform-origin: 353.83px 418.07px;" id="eld5gxot78goj" class="animable"></path><g id="el24d3kjsx7n2"><rect x="338.84" y="402.33" width="42.63" height="7.2" rx="3.1" style="opacity: 0.2; transform-origin: 360.155px 405.93px; transform: rotate(24.75deg);" class="animable"></rect></g><path d="M382.49,408.07h-.06a.5.5,0,0,1-.44-.55,20.81,20.81,0,0,0-8.51-18.85.5.5,0,1,1,.57-.82A21.83,21.83,0,0,1,383,407.62.49.49,0,0,1,382.49,408.07Z" style="fill: rgb(0, 255, 136); transform-origin: 378.171px 397.908px;" id="elf5i1mat3j7g" class="animable"></path><path d="M371.87,162.28c0-35.59-19.29-67.81-38.1-68.58-15.79-.65-55.37,81.56-58.21,79.47-15.87-5.09-33.25-4.13-50.85-.2,0,0-46.86-80.13-63-80.26-18.83-.15-33.57,31.06-33.56,69.57,0,28.49,12.39,57.85,12.39,57.85s-3.38,101.27,5,118.53c18.36,38,49.13,18.39,56.8,35.37,7.45,16.5,6.41,37.8,50.61,38.68,1.4,0,2.75,0,4.06,0,44.2-.88,40-29.5,47.43-46,7.67-17,37.05,4.2,55.41-33.8,8.34-17.25,1.85-109.35,1.85-109.35S371.85,190.77,371.87,162.28Z" style="fill: rgb(0, 255, 136); transform-origin: 250.01px 252.71px;" id="elrk12t4ck8ne" class="animable"></path><g id="el6lfvdnpjxcb"><path d="M371.87,162.28c0-35.59-19.29-67.81-38.1-68.58-15.79-.65-55.37,81.56-58.21,79.47-15.87-5.09-33.25-4.13-50.85-.2,0,0-46.86-80.13-63-80.26-18.83-.15-33.57,31.06-33.56,69.57,0,28.49,12.39,57.85,12.39,57.85s-3.38,101.27,5,118.53c18.36,38,49.13,18.39,56.8,35.37,7.45,16.5,6.41,37.8,50.61,38.68,1.4,0,2.75,0,4.06,0,44.2-.88,40-29.5,47.43-46,7.67-17,37.05,4.2,55.41-33.8,8.34-17.25,1.85-109.35,1.85-109.35S371.85,190.77,371.87,162.28Z" style="fill: rgb(255, 255, 255); opacity: 0.8; transform-origin: 250.01px 252.71px;" class="animable"></path></g><path d="M273,202.6s-8.83-5.56-11.12-12.1a39.11,39.11,0,0,1-1.69-11.12,5.21,5.21,0,0,0-5.22-5h0a5.2,5.2,0,0,0-5.21,5A39.13,39.13,0,0,1,248,190.5c-2.29,6.54-11.11,12.1-11.11,12.1-23.54,14.71-23.07,40.81-19.29,52.3,6,18.17,26.81,23.86,26.81,23.86s3,45.65,2.26,68.72c-1,31-7.05,50.55-10.5,58.16l18.07-.88,19.38-.14S261.77,382,262.3,348c.38-23.72,3.16-69.25,3.16-69.25s20.82-4.86,26.8-23.86C295.89,243.36,296.51,217.31,273,202.6ZM284.11,251c-5.41,12.53-17.36,15.2-29.16,15.56-11.79-.36-23.74-3-29.16-15.56a28.89,28.89,0,0,1-.15-21.61c2.43-6.46,5.81-12.62,11.84-16l.16-.09a36.07,36.07,0,0,1,34.62,0l.16.09c6,3.36,9.41,9.52,11.84,16A28.84,28.84,0,0,1,284.11,251Z" style="fill: rgb(0, 255, 136); transform-origin: 254.897px 290.01px;" id="elir4ij4ros5" class="animable"></path><path d="M280.35,396.49c-.73-1.82-3-2.29-5-2.44a117.92,117.92,0,0,0-15.84-.21q-11.7-.25-23.41.33c-2.63.13-5.88.75-6.62,3.29-.59,2,.83,4,2.3,5.49a32.55,32.55,0,0,0,19,9.21c.33.42.65.84,1,1.24a5.22,5.22,0,0,0,4,2.16c1.78-.11,3.13-1.64,4-3.21.08-.15.16-.3.23-.46a32.41,32.41,0,0,0,18.63-10.45C279.89,400.06,281,398.19,280.35,396.49Z" style="fill: rgb(38, 50, 56); transform-origin: 254.942px 404.614px;" id="el6nnh0cyghh3" class="animable"></path><path d="M166,232.21a9,9,0,0,1,3.69-4.27,5.39,5.39,0,0,1,5.46.07c2.14,1.45,2.58,4.36,2.82,6.93.8,8.62,1.62,17.32,4.31,25.55s7.41,16.07,14.6,20.9c-14.26-5.28-20.91-17-27-27.58a39.78,39.78,0,0,1-4.56-10.42A17.33,17.33,0,0,1,166,232.21Z" style="fill: rgb(0, 255, 136); transform-origin: 180.79px 254.311px;" id="elx3r92qokhd" class="animable"></path><path d="M269.44,234.61a9.52,9.52,0,0,0-9.25-6c-3.92.33-7.42,3.9-7.3,7.84a8.72,8.72,0,0,1,5.36-3.21,5.71,5.71,0,0,1,5.56,2.37c1.36,2.16.71,5.18-1,7a10.57,10.57,0,0,1-6.9,2.89,12.8,12.8,0,0,1-7.68-1.62,11.62,11.62,0,0,1-5-11.73,15.14,15.14,0,0,1,7.92-10.4c4-2.13,9.13-1.55,13.16-2.09a25.09,25.09,0,0,0-10.73-1c-8.07.61-12,5.75-13.84,11a16.38,16.38,0,0,0,2.9,15.62,17.26,17.26,0,0,0,14.84,5.88,15,15,0,0,0,10.14-5.41A11.6,11.6,0,0,0,269.44,234.61Z" style="fill: rgb(0, 255, 136); transform-origin: 254.511px 234.861px;" id="el3o9bi03srs5" class="animable"></path><g id="el9lkz37ue9c"><path d="M260,398.86a1.58,1.58,0,0,0-1.09-2.72c-6.6-.06-25.29-.27-26,.7-.82,1.18,4.05,5.5,10,5.5C253.77,402.35,258.22,400.53,260,398.86Z" style="fill: rgb(240, 240, 240); opacity: 0.2; transform-origin: 246.653px 399.209px;" class="animable"></path></g><path d="M160.9,306.73c.38,10.39,7.7,19.34,16.15,25.41s18.22,10,26.91,15.75,16.62,13.89,18.27,24.16a58.64,58.64,0,0,0-24.53-21.91c-8-3.78-16.87-5.78-24-10.92A33.16,33.16,0,0,1,160.23,310" style="fill: rgb(0, 255, 136); transform-origin: 191.184px 339.39px;" id="el745hwsfjxw9" class="animable"></path><path d="M230.79,288.25c-12-4.76-24.66-18.46-31.94-31.22s-7.82-30.47-1.12-43.54c1.6-3.13,3.93-6.18,7.29-7.27s7.74.69,8.32,4.16-2.38,6.2-4.6,8.83c-8.49,10-8.25,25.22-2.89,37.2s15.57,22.65,24.94,31.84" style="fill: rgb(0, 255, 136); transform-origin: 211.91px 247.075px;" id="el2l0b153pw8j" class="animable"></path><path d="M341.69,231.48a8.92,8.92,0,0,0-3.7-4.27,5.39,5.39,0,0,0-5.46.07c-2.14,1.45-2.57,4.36-2.81,6.93-.8,8.62-1.63,17.32-4.31,25.55s-7.42,16.07-14.6,20.9c14.25-5.28,20.9-17,27-27.58a39.9,39.9,0,0,0,4.55-10.42A17.4,17.4,0,0,0,341.69,231.48Z" style="fill: rgb(0, 255, 136); transform-origin: 326.895px 253.581px;" id="elii7fjgheac" class="animable"></path><path d="M346.82,306c-.39,10.39-7.71,19.34-16.16,25.41s-18.21,10-26.9,15.75-16.62,13.89-18.27,24.16A58.62,58.62,0,0,1,310,349.41c8-3.78,16.87-5.78,24-10.93a33.15,33.15,0,0,0,13.44-29.26" style="fill: rgb(0, 255, 136); transform-origin: 316.514px 338.66px;" id="elmp684faj9ni" class="animable"></path><path d="M276.92,287.52c12-4.77,24.67-18.46,31.94-31.22s7.82-30.47,1.13-43.54c-1.61-3.14-3.94-6.18-7.29-7.27s-7.74.69-8.33,4.16,2.38,6.2,4.61,8.83c8.48,10,8.24,25.22,2.89,37.2s-15.58,22.65-24.95,31.84" style="fill: rgb(0, 255, 136); transform-origin: 295.799px 246.345px;" id="el9udmvu5b65l" class="animable"></path><path d="M162.05,272s25.88,10.95,36.08,17.67,31,23.66,35.33,35.58c4.9,13.46,8.46,37.82,7,41.8s-5.12-10.5-8.11-16.72-8-7.57-10.09-8.35c-9.11-3.44-34.29-5.21-49-24.37S162.05,272,162.05,272Z" style="fill: rgb(0, 255, 136); transform-origin: 201.238px 319.866px;" id="el6bhfvnus80l" class="animable"></path><g id="elqknhxm3i5z"><path d="M162.05,272s25.88,10.95,36.08,17.67,31,23.66,35.33,35.58c4.9,13.46,8.46,37.82,7,41.8s-5.12-10.5-8.11-16.72-8-7.57-10.09-8.35c-9.11-3.44-34.29-5.21-49-24.37S162.05,272,162.05,272Z" style="fill: rgb(255, 255, 255); opacity: 0.5; transform-origin: 201.238px 319.866px;" class="animable"></path></g><path d="M173.91,288.25c1.58,10.43,8.32,31.35,26.34,37.62,15.38,5.35,24.45,9,29.68,11.34-.51-8.23-10.45-23.17-23.7-33S175,288.25,173.91,288.25Z" style="fill: rgb(38, 50, 56); transform-origin: 201.92px 312.73px;" id="elmj7clipoa1f" class="animable"></path><path d="M344.52,272s-25.88,10.95-36.08,17.67-31,23.66-35.34,35.58c-4.89,13.46-8.46,37.82-7,41.8s5.12-10.5,8.1-16.72,8-7.57,10.1-8.35c9.1-3.44,34.29-5.21,49-24.37S344.52,272,344.52,272Z" style="fill: rgb(0, 255, 136); transform-origin: 305.326px 319.866px;" id="eldhb51jqo2d" class="animable"></path><g id="elmtjac2jvfp"><path d="M344.52,272s-25.88,10.95-36.08,17.67-31,23.66-35.34,35.58c-4.89,13.46-8.46,37.82-7,41.8s5.12-10.5,8.1-16.72,8-7.57,10.1-8.35c9.1-3.44,34.29-5.21,49-24.37S344.52,272,344.52,272Z" style="fill: rgb(255, 255, 255); opacity: 0.5; transform-origin: 305.326px 319.866px;" class="animable"></path></g><path d="M332.66,288.25c-1.58,10.43-8.32,31.35-26.34,37.62-15.39,5.35-24.45,9-29.69,11.34.52-8.23,10.46-23.17,23.71-33S331.55,288.25,332.66,288.25Z" style="fill: rgb(38, 50, 56); transform-origin: 304.645px 312.73px;" id="elq30nfyfe42r" class="animable"></path><path d="M178.34,132c-11.92-21.19-14.88-21.27-19.89-20.53-3.18.47-5.76,3-7.14,5.89S147.57,126,147,129.13c-5,25.74-7.12,58.47,8.07,76.81,16.53-12.07,33.77-21.65,52.09-28C207.12,178,189.39,151.61,178.34,132Z" style="fill: rgb(0, 255, 136); transform-origin: 175.227px 158.6px;" id="elsfbulc2ngmb" class="animable"></path><g id="elhmirwq7joxq"><path d="M155,205.94S175.4,188.21,191.17,177l-10.35-40.7L207.12,178C195.61,182,181.07,187.74,155,205.94Z" style="opacity: 0.5; transform-origin: 181.06px 171.12px;" class="animable"></path></g><path d="M322.92,132c11.93-21.18,14.89-21.26,19.9-20.52,3.18.46,5.76,3,7.14,5.89s3.74,8.63,4.35,11.78c5,25.74,7.12,58.47-8.07,76.81-16.54-12.06-33.77-21.65-52.09-28C294.15,177.93,311.88,151.58,322.92,132Z" style="fill: rgb(0, 255, 136); transform-origin: 326.083px 158.615px;" id="elan5t2pmg8je" class="animable"></path><g id="el8idt9a9wmtd"><path d="M346.24,205.91S325.87,188.19,310.1,177l10.35-40.71-26.3,41.66C305.66,182,320.19,187.71,346.24,205.91Z" style="opacity: 0.5; transform-origin: 320.195px 171.1px;" class="animable"></path></g></g><g id="freepik--Clouds--inject-110" class="animable" style="transform-origin: 256.86px 192.491px;"><path d="M199.75,70.94c1.92,2.28,5.68,1.94,8.18.3s4.18-4.22,6.28-6.34,5-3.9,7.94-3.2a9.75,9.75,0,0,1,13.46-11,15.44,15.44,0,0,1,9.82-6.05c4.45-.68,12,1.41,14.27,5.3a12,12,0,0,1,17.65,12.14c4.48-.35,7.94,4.12,11.6,6.73s9.36,5.17,13.57,3.35c-1,3.61-5.62,5.63-9.34,6s-6.59-2-10-.53c-2.61,1.08-5.88,3.77-8.41,5A13,13,0,0,1,260.94,81c-1.86,3.2-7.92,4.55-11.47,3.5s-6.84-4.84-7.44-6.6c-2.38,3.43-7.8,5.65-12.68,5.33a20.48,20.48,0,0,1-13.42-7,12.62,12.62,0,0,1-18.45-4.75" style="fill: rgb(0, 255, 136); transform-origin: 250px 64.6867px;" id="elyghfr3ri1po" class="animable"></path><g id="elq65nv9fo0is"><g style="opacity: 0.7; transform-origin: 250px 64.6867px;" class="animable"><path d="M199.75,70.94c1.92,2.28,5.68,1.94,8.18.3s4.18-4.22,6.28-6.34,5-3.9,7.94-3.2a9.75,9.75,0,0,1,13.46-11,15.44,15.44,0,0,1,9.82-6.05c4.45-.68,12,1.41,14.27,5.3a12,12,0,0,1,17.65,12.14c4.48-.35,7.94,4.12,11.6,6.73s9.36,5.17,13.57,3.35c-1,3.61-5.62,5.63-9.34,6s-6.59-2-10-.53c-2.61,1.08-5.88,3.77-8.41,5A13,13,0,0,1,260.94,81c-1.86,3.2-7.92,4.55-11.47,3.5s-6.84-4.84-7.44-6.6c-2.38,3.43-7.8,5.65-12.68,5.33a20.48,20.48,0,0,1-13.42-7,12.62,12.62,0,0,1-18.45-4.75" style="fill: rgb(255, 255, 255); transform-origin: 250px 64.6867px;" id="eleh4u6ttsix8" class="animable"></path></g></g><path d="M250.33,67.37a9,9,0,0,1-4.45-1.14,7.31,7.31,0,0,1-3.7-6.35,5.94,5.94,0,0,1,4.66-5.56,5.32,5.32,0,0,1,5.43,2.54.5.5,0,0,1-.86.5A4.39,4.39,0,0,0,247,55.3a4.93,4.93,0,0,0-3.83,4.62,6.3,6.3,0,0,0,3.2,5.44,8.5,8.5,0,0,0,6.55.64,10.31,10.31,0,0,0,5.69-15.7.49.49,0,0,1,.13-.69.5.5,0,0,1,.7.13A11.32,11.32,0,0,1,253.21,67,10.66,10.66,0,0,1,250.33,67.37Z" style="fill: rgb(0, 255, 136); transform-origin: 251.794px 58.4453px;" id="elxrd765pcx3" class="animable"></path><path d="M261.61,81.7a.46.46,0,0,1-.23-.06c-2.13-1.07-2.75-3.57-2.62-5.54a10.88,10.88,0,0,1,6.54-9c2.58-1.11,4.82-1.06,6.67.14a4.8,4.8,0,0,1,1.81,5.83,5.24,5.24,0,0,1-5.6,2.84.51.51,0,0,1-.4-.59.5.5,0,0,1,.58-.4,4.25,4.25,0,0,0,4.51-2.26,3.78,3.78,0,0,0-1.44-4.58c-1.56-1-3.48-1-5.72-.07a9.86,9.86,0,0,0-5.95,8.14c-.1,1.58.38,3.73,2.07,4.59a.5.5,0,0,1-.22,1Z" style="fill: rgb(0, 255, 136); transform-origin: 266.44px 74.0269px;" id="el8cwqzf3f0cf" class="animable"></path><path d="M269.79,67.55a.52.52,0,0,1-.21,0,.5.5,0,0,1-.24-.67c1.07-2.27,2.81-4.64,7.6-5.07a.5.5,0,1,1,.09,1c-4.27.39-5.79,2.4-6.79,4.51A.48.48,0,0,1,269.79,67.55Z" style="fill: rgb(0, 255, 136); transform-origin: 273.389px 64.6843px;" id="elincylwnkk7f" class="animable"></path><path d="M240,80.11a.51.51,0,0,1-.37-.17.49.49,0,0,1,0-.7c2.28-2.07,3-6.12,2.4-8.85a6.77,6.77,0,0,0-5.73-5,7.69,7.69,0,0,0-7.07,3.34,4.15,4.15,0,0,0-.77,3.55,3.42,3.42,0,0,0,2.91,2.13,6.52,6.52,0,0,0,3.89-1,.5.5,0,0,1,.49.87,7.49,7.49,0,0,1-4.49,1.08,4.45,4.45,0,0,1-3.75-2.8,5.12,5.12,0,0,1,.9-4.43,8.7,8.7,0,0,1,8-3.78,7.83,7.83,0,0,1,6.6,5.83c.66,3-.07,7.41-2.71,9.81A.55.55,0,0,1,240,80.11Z" style="fill: rgb(0, 255, 136); transform-origin: 235.29px 72.2116px;" id="eljkcjt2oe2g" class="animable"></path><path d="M460.65,308.46a20.33,20.33,0,0,0-14,2l-.25-.57c1.66-3.31-.35-9.15-3.22-11.49s-5.94-2.92-9.64-3.08A20.36,20.36,0,0,0,424,296.9a13.22,13.22,0,0,0-6.45,8.34,6.84,6.84,0,0,0-5.34,5.5,8.64,8.64,0,0,0,2.5,7.44,11.74,11.74,0,0,0,7.3,3.25c-.74,1.93.41,4.08,1.83,5.59a17.26,17.26,0,0,0,12.27,5.18,23.28,23.28,0,0,0,12.9-3.94c3.82-2.48,7-5.85,10.7-8.48s8.33-4.56,12.77-3.53A20.33,20.33,0,0,0,460.65,308.46Z" style="fill: rgb(0, 255, 136); transform-origin: 442.298px 313.731px;" id="el3ad28exh2d7" class="animable"></path><g id="elh4diybd4sa8"><g style="opacity: 0.7; transform-origin: 442.298px 313.731px;" class="animable"><path d="M460.65,308.46a20.33,20.33,0,0,0-14,2l-.25-.57c1.66-3.31-.35-9.15-3.22-11.49s-5.94-2.92-9.64-3.08A20.36,20.36,0,0,0,424,296.9a13.22,13.22,0,0,0-6.45,8.34,6.84,6.84,0,0,0-5.34,5.5,8.64,8.64,0,0,0,2.5,7.44,11.74,11.74,0,0,0,7.3,3.25c-.74,1.93.41,4.08,1.83,5.59a17.26,17.26,0,0,0,12.27,5.18,23.28,23.28,0,0,0,12.9-3.94c3.82-2.48,7-5.85,10.7-8.48s8.33-4.56,12.77-3.53A20.33,20.33,0,0,0,460.65,308.46Z" style="fill: rgb(255, 255, 255); transform-origin: 442.298px 313.731px;" id="elsot6m5ze7pb" class="animable"></path></g></g><path d="M436.07,317.05a8.18,8.18,0,0,1-6.44-2.85,7,7,0,0,1,10.9-8.84.5.5,0,0,1-.07.7.49.49,0,0,1-.7-.06,6,6,0,0,0-9.35,7.58c1.74,2.19,5.12,3,8.21,2.09a14.36,14.36,0,0,0,7.12-5.69.51.51,0,0,1,.7-.11.49.49,0,0,1,.12.69,15.05,15.05,0,0,1-7.64,6.06A9.66,9.66,0,0,1,436.07,317.05Z" style="fill: rgb(0, 255, 136); transform-origin: 437.358px 309.908px;" id="el8kwr1rjdm47" class="animable"></path><path d="M52.84,317.14a19.85,19.85,0,0,1,13.79,1.93l.25-.56c-1.62-3.26.34-9,3.16-11.29s5.84-2.87,9.48-3a20.07,20.07,0,0,1,9.32,1.59A13,13,0,0,1,95.18,314a6.75,6.75,0,0,1,5.24,5.41A8.49,8.49,0,0,1,98,326.69a11.56,11.56,0,0,1-7.18,3.19c.73,1.9-.4,4-1.79,5.5a17,17,0,0,1-12.06,5.08,22.9,22.9,0,0,1-12.67-3.87c-3.75-2.44-6.86-5.75-10.51-8.33s-8.19-4.48-12.55-3.47A20,20,0,0,1,52.84,317.14Z" style="fill: rgb(0, 255, 136); transform-origin: 70.8763px 322.316px;" id="elhcu4ulwlcar" class="animable"></path><g id="elcd6pjzpbmrk"><g style="opacity: 0.7; transform-origin: 70.8763px 322.316px;" class="animable"><path d="M52.84,317.14a19.85,19.85,0,0,1,13.79,1.93l.25-.56c-1.62-3.26.34-9,3.16-11.29s5.84-2.87,9.48-3a20.07,20.07,0,0,1,9.32,1.59A13,13,0,0,1,95.18,314a6.75,6.75,0,0,1,5.24,5.41A8.49,8.49,0,0,1,98,326.69a11.56,11.56,0,0,1-7.18,3.19c.73,1.9-.4,4-1.79,5.5a17,17,0,0,1-12.06,5.08,22.9,22.9,0,0,1-12.67-3.87c-3.75-2.44-6.86-5.75-10.51-8.33s-8.19-4.48-12.55-3.47A20,20,0,0,1,52.84,317.14Z" style="fill: rgb(255, 255, 255); transform-origin: 70.8763px 322.316px;" id="el7a4qe0tbdni" class="animable"></path></g></g><path d="M77,325.59a9.65,9.65,0,0,1-2.8-.42,15,15,0,0,1-7.51-6,.5.5,0,0,1,.12-.7.51.51,0,0,1,.7.12,14,14,0,0,0,7,5.58c3,.94,6.35.1,8.05-2a5.9,5.9,0,0,0-9.16-7.44.5.5,0,1,1-.77-.63,6.9,6.9,0,0,1,10.72,8.69A8.07,8.07,0,0,1,77,325.59Z" style="fill: rgb(0, 255, 136); transform-origin: 75.7321px 318.583px;" id="el2zkqj9oelgh" class="animable"></path></g><g id="freepik--Plants--inject-110" class="animable" style="transform-origin: 251.779px 195.066px;"><path d="M418.31,221.32c-3.14-6.48-9.81-11.81-18.6-7.55a23.26,23.26,0,0,0-5,3.36,19.9,19.9,0,0,0-.21-2.47c-1.5-9.64-9.68-12.1-16.8-11s-14.16,5.93-12.66,15.58a22,22,0,0,0,.85,3.43l-.09,0c-9.5-2.22-14.84,4.45-16.48,11.46s.2,15.36,9.7,17.58a23.1,23.1,0,0,0,6,.52,19.09,19.09,0,0,0-1.39,2.06c-4.91,8.44-.09,15.49,6.14,19.11s14.74,4.3,19.64-4.14a23.05,23.05,0,0,0,2.26-5.58,19.82,19.82,0,0,0,1.55,1.93c6.64,7.16,14.79,4.62,20.08-.28s8.42-12.84,1.78-20a23.72,23.72,0,0,0-4.67-3.79,21.2,21.2,0,0,0,2.3-.92C421.5,236.34,421.46,227.8,418.31,221.32Z" style="fill: rgb(0, 255, 136); transform-origin: 384.513px 239.683px;" id="eltkl3iyrujgp" class="animable"></path><g id="elbshblbnzyu"><path d="M418.31,221.32c-3.14-6.48-9.81-11.81-18.6-7.55a23.26,23.26,0,0,0-5,3.36,19.9,19.9,0,0,0-.21-2.47c-1.5-9.64-9.68-12.1-16.8-11s-14.16,5.93-12.66,15.58a22,22,0,0,0,.85,3.43l-.09,0c-9.5-2.22-14.84,4.45-16.48,11.46s.2,15.36,9.7,17.58a23.1,23.1,0,0,0,6,.52,19.09,19.09,0,0,0-1.39,2.06c-4.91,8.44-.09,15.49,6.14,19.11s14.74,4.3,19.64-4.14a23.05,23.05,0,0,0,2.26-5.58,19.82,19.82,0,0,0,1.55,1.93c6.64,7.16,14.79,4.62,20.08-.28s8.42-12.84,1.78-20a23.72,23.72,0,0,0-4.67-3.79,21.2,21.2,0,0,0,2.3-.92C421.5,236.34,421.46,227.8,418.31,221.32Z" style="fill: rgb(255, 255, 255); opacity: 0.5; transform-origin: 384.513px 239.683px;" class="animable"></path></g><path d="M393.16,237.53a6.81,6.81,0,1,1-7.78-5.68A6.81,6.81,0,0,1,393.16,237.53Z" style="fill: rgb(38, 50, 56); transform-origin: 386.431px 238.578px;" id="el4e9gnt608ca" class="animable"></path><path d="M387.09,225.94a2.6,2.6,0,1,1-3-2.17A2.6,2.6,0,0,1,387.09,225.94Z" style="fill: rgb(38, 50, 56); transform-origin: 384.52px 226.334px;" id="elovm9ciyl309" class="animable"></path><g id="elfmm958eb8b"><circle cx="388.33" cy="250.82" r="2.6" style="fill: rgb(38, 50, 56); transform-origin: 388.33px 250.82px; transform: rotate(-53.65deg);" class="animable"></circle></g><polygon points="388.16 250.85 384.35 226.37 384.7 226.32 388.51 250.79 388.16 250.85" style="fill: rgb(38, 50, 56); transform-origin: 386.43px 238.585px;" id="elu7bmkt0a6r" class="animable"></polygon><path d="M399.07,239.25a2.6,2.6,0,1,1,2.17-3A2.6,2.6,0,0,1,399.07,239.25Z" style="fill: rgb(38, 50, 56); transform-origin: 398.676px 236.68px;" id="ela7p9va9j29a" class="animable"></path><path d="M374.59,243.06a2.6,2.6,0,1,1,2.17-3A2.6,2.6,0,0,1,374.59,243.06Z" style="fill: rgb(38, 50, 56); transform-origin: 374.196px 240.49px;" id="elxh19isdjecg" class="animable"></path><polygon points="374.22 240.66 374.16 240.31 398.64 236.5 398.69 236.85 374.22 240.66" style="fill: rgb(38, 50, 56); transform-origin: 386.425px 238.58px;" id="elzlwtvmqyjwn" class="animable"></polygon><path d="M395.83,230.12a2.6,2.6,0,1,1-.56-3.64A2.59,2.59,0,0,1,395.83,230.12Z" style="fill: rgb(38, 50, 56); transform-origin: 393.738px 228.579px;" id="el7p0u0o5w2r" class="animable"></path><path d="M381.22,250.12a2.6,2.6,0,1,1-.56-3.64A2.59,2.59,0,0,1,381.22,250.12Z" style="fill: rgb(38, 50, 56); transform-origin: 379.128px 248.579px;" id="elwhnus55jqkd" class="animable"></path><g id="ellmphwzu2v8"><rect x="374.04" y="238.41" width="24.77" height="0.35" style="fill: rgb(38, 50, 56); transform-origin: 386.425px 238.585px; transform: rotate(-53.83deg);" class="animable"></rect></g><path d="M394.9,248a2.6,2.6,0,1,1,3.63-.57A2.61,2.61,0,0,1,394.9,248Z" style="fill: rgb(38, 50, 56); transform-origin: 396.43px 245.896px;" id="elnezy04ydvwt" class="animable"></path><path d="M374.89,233.38a2.6,2.6,0,1,1,3.64-.57A2.6,2.6,0,0,1,374.89,233.38Z" style="fill: rgb(38, 50, 56); transform-origin: 376.426px 231.282px;" id="elzgha7x0678" class="animable"></path><polygon points="396.33 246.03 376.32 231.42 376.53 231.13 396.53 245.75 396.33 246.03" style="fill: rgb(38, 50, 56); transform-origin: 386.425px 238.58px;" id="elivna14lzfo" class="animable"></polygon><path d="M267.05,123.21c-1.58-3.27-4.95-6-9.38-3.81a11.28,11.28,0,0,0-2.52,1.7,8.42,8.42,0,0,0-.11-1.25c-.75-4.87-4.88-6.1-8.47-5.54s-7.15,3-6.39,7.86a11.21,11.21,0,0,0,.43,1.73l-.05,0c-4.79-1.12-7.49,2.25-8.32,5.79s.1,7.74,4.9,8.86a11.53,11.53,0,0,0,3,.27c-.25.34-.49.68-.7,1-2.47,4.26,0,7.82,3.1,9.65s7.44,2.17,9.91-2.09a11.49,11.49,0,0,0,1.14-2.81,10.76,10.76,0,0,0,.79,1c3.35,3.61,7.46,2.33,10.13-.14s4.25-6.48.9-10.09a11.67,11.67,0,0,0-2.36-1.91,10.81,10.81,0,0,0,1.16-.47C268.66,130.79,268.64,126.48,267.05,123.21Z" style="fill: rgb(0, 255, 136); transform-origin: 249.996px 132.471px;" id="elail2fd3igof" class="animable"></path><g id="el80crabp3kjv"><path d="M267.05,123.21c-1.58-3.27-4.95-6-9.38-3.81a11.28,11.28,0,0,0-2.52,1.7,8.42,8.42,0,0,0-.11-1.25c-.75-4.87-4.88-6.1-8.47-5.54s-7.15,3-6.39,7.86a11.21,11.21,0,0,0,.43,1.73l-.05,0c-4.79-1.12-7.49,2.25-8.32,5.79s.1,7.74,4.9,8.86a11.53,11.53,0,0,0,3,.27c-.25.34-.49.68-.7,1-2.47,4.26,0,7.82,3.1,9.65s7.44,2.17,9.91-2.09a11.49,11.49,0,0,0,1.14-2.81,10.76,10.76,0,0,0,.79,1c3.35,3.61,7.46,2.33,10.13-.14s4.25-6.48.9-10.09a11.67,11.67,0,0,0-2.36-1.91,10.81,10.81,0,0,0,1.16-.47C268.66,130.79,268.64,126.48,267.05,123.21Z" style="fill: rgb(255, 255, 255); opacity: 0.5; transform-origin: 249.996px 132.471px;" class="animable"></path></g><path d="M254.36,131.39a3.44,3.44,0,1,1-3.92-2.86A3.44,3.44,0,0,1,254.36,131.39Z" style="fill: rgb(38, 50, 56); transform-origin: 250.963px 131.93px;" id="el35ie77xec6f" class="animable"></path><path d="M251.3,125.54a1.31,1.31,0,0,1-2.59.41,1.3,1.3,0,0,1,1.09-1.5A1.31,1.31,0,0,1,251.3,125.54Z" style="fill: rgb(38, 50, 56); transform-origin: 250.004px 125.745px;" id="el0ihqv7npyuk" class="animable"></path><path d="M253.22,137.89a1.31,1.31,0,1,1-1.5-1.09A1.31,1.31,0,0,1,253.22,137.89Z" style="fill: rgb(38, 50, 56); transform-origin: 251.926px 138.094px;" id="elk3i636ro4y" class="animable"></path><polygon points="251.75 138.12 249.83 125.77 250.18 125.72 252.1 138.07 251.75 138.12" style="fill: rgb(38, 50, 56); transform-origin: 250.965px 131.92px;" id="el7e4xkcjbm6v" class="animable"></polygon><path d="M257.34,132.26a1.32,1.32,0,1,1,1.1-1.5A1.31,1.31,0,0,1,257.34,132.26Z" style="fill: rgb(38, 50, 56); transform-origin: 257.135px 130.956px;" id="elloz7lpjkpu" class="animable"></path><path d="M245,134.18a1.31,1.31,0,1,1,1.1-1.5A1.31,1.31,0,0,1,245,134.18Z" style="fill: rgb(38, 50, 56); transform-origin: 244.806px 132.884px;" id="elgd9t4kt728r" class="animable"></path><polygon points="244.82 133.06 244.76 132.71 257.11 130.79 257.17 131.13 244.82 133.06" style="fill: rgb(38, 50, 56); transform-origin: 250.965px 131.925px;" id="elkt6ulzx66j" class="animable"></polygon><path d="M255.71,127.65a1.31,1.31,0,1,1-.29-1.83A1.31,1.31,0,0,1,255.71,127.65Z" style="fill: rgb(38, 50, 56); transform-origin: 254.65px 126.88px;" id="el3cbq2kbr7fs" class="animable"></path><path d="M248.34,137.74a1.31,1.31,0,1,1-.29-1.83A1.31,1.31,0,0,1,248.34,137.74Z" style="fill: rgb(38, 50, 56); transform-origin: 247.28px 136.97px;" id="el5b1t6u11isv" class="animable"></path><g id="eljtvpnduskmb"><rect x="244.71" y="131.75" width="12.5" height="0.35" style="fill: rgb(38, 50, 56); transform-origin: 250.96px 131.925px; transform: rotate(-53.93deg);" class="animable"></rect></g><path d="M255.24,136.67a1.31,1.31,0,1,1,1.83-.29A1.31,1.31,0,0,1,255.24,136.67Z" style="fill: rgb(38, 50, 56); transform-origin: 256.01px 135.61px;" id="elqtyw02nmqu" class="animable"></path><path d="M245.14,129.29A1.31,1.31,0,1,1,247,129,1.32,1.32,0,0,1,245.14,129.29Z" style="fill: rgb(38, 50, 56); transform-origin: 245.93px 128.243px;" id="elst63nqjmxj" class="animable"></path><polygon points="255.91 135.75 245.81 128.38 246.02 128.09 256.11 135.47 255.91 135.75" style="fill: rgb(38, 50, 56); transform-origin: 250.96px 131.92px;" id="el1380tpc7c2yc" class="animable"></polygon><path d="M147.37,216.2c-2.9-6-9.05-10.88-17.14-7a21.74,21.74,0,0,0-4.6,3.1,18.61,18.61,0,0,0-.19-2.27c-1.39-8.89-8.92-11.15-15.48-10.13s-13,5.47-11.67,14.36a20.45,20.45,0,0,0,.79,3.15l-.08,0c-8.76-2.05-13.68,4.09-15.19,10.56s.18,14.15,8.94,16.19a21.23,21.23,0,0,0,5.52.49A19.6,19.6,0,0,0,97,246.56c-4.52,7.77-.08,14.27,5.66,17.61s13.58,4,18.1-3.82a21.36,21.36,0,0,0,2.08-5.14,18,18,0,0,0,1.43,1.78c6.11,6.59,13.63,4.25,18.49-.26s7.76-11.83,1.65-18.42a21,21,0,0,0-4.31-3.49,19.93,19.93,0,0,0,2.12-.85C150.3,230,150.26,222.18,147.37,216.2Z" style="fill: rgb(0, 255, 136); transform-origin: 116.229px 233.102px;" id="el2h9g1qjs1us" class="animable"></path><g id="ely1xxruklyp9"><path d="M147.37,216.2c-2.9-6-9.05-10.88-17.14-7a21.74,21.74,0,0,0-4.6,3.1,18.61,18.61,0,0,0-.19-2.27c-1.39-8.89-8.92-11.15-15.48-10.13s-13,5.47-11.67,14.36a20.45,20.45,0,0,0,.79,3.15l-.08,0c-8.76-2.05-13.68,4.09-15.19,10.56s.18,14.15,8.94,16.19a21.23,21.23,0,0,0,5.52.49A19.6,19.6,0,0,0,97,246.56c-4.52,7.77-.08,14.27,5.66,17.61s13.58,4,18.1-3.82a21.36,21.36,0,0,0,2.08-5.14,18,18,0,0,0,1.43,1.78c6.11,6.59,13.63,4.25,18.49-.26s7.76-11.83,1.65-18.42a21,21,0,0,0-4.31-3.49,19.93,19.93,0,0,0,2.12-.85C150.3,230,150.26,222.18,147.37,216.2Z" style="fill: rgb(255, 255, 255); opacity: 0.5; transform-origin: 116.229px 233.102px;" class="animable"></path></g><path d="M124.19,231.14a6.27,6.27,0,1,1-7.17-5.23A6.27,6.27,0,0,1,124.19,231.14Z" style="fill: rgb(38, 50, 56); transform-origin: 117.995px 232.104px;" id="elckva4877zr6" class="animable"></path><path d="M118.6,220.46a2.39,2.39,0,1,1-2.73-2A2.39,2.39,0,0,1,118.6,220.46Z" style="fill: rgb(38, 50, 56); transform-origin: 116.238px 220.822px;" id="el64yf2ts3qg" class="animable"></path><path d="M122.11,243a2.39,2.39,0,1,1-2.73-2A2.39,2.39,0,0,1,122.11,243Z" style="fill: rgb(38, 50, 56); transform-origin: 119.748px 243.362px;" id="eltnf90axnu87" class="animable"></path><g id="el6ft4lw5gv6r"><rect x="117.81" y="220.7" width="0.35" height="22.82" style="fill: rgb(38, 50, 56); transform-origin: 117.985px 232.11px; transform: rotate(-8.85deg);" class="animable"></rect></g><path d="M129.63,232.72a2.4,2.4,0,1,1,2-2.74A2.39,2.39,0,0,1,129.63,232.72Z" style="fill: rgb(38, 50, 56); transform-origin: 129.259px 230.349px;" id="el7wqecwfkyd6" class="animable"></path><path d="M107.08,236.23a2.39,2.39,0,1,1,2-2.74A2.39,2.39,0,0,1,107.08,236.23Z" style="fill: rgb(38, 50, 56); transform-origin: 106.72px 233.867px;" id="el0nkcnqw6bqyc" class="animable"></path><polygon points="106.74 234.04 106.69 233.69 129.24 230.18 129.29 230.53 106.74 234.04" style="fill: rgb(38, 50, 56); transform-origin: 117.99px 232.11px;" id="eli4a8eqq0n3l" class="animable"></polygon><path d="M126.66,224.31a2.4,2.4,0,1,1-.53-3.35A2.4,2.4,0,0,1,126.66,224.31Z" style="fill: rgb(38, 50, 56); transform-origin: 124.718px 222.9px;" id="ely7znq8al84a" class="animable"></path><path d="M113.19,242.74a2.4,2.4,0,1,1-.52-3.35A2.4,2.4,0,0,1,113.19,242.74Z" style="fill: rgb(38, 50, 56); transform-origin: 111.251px 241.326px;" id="elesshf0ct5mn" class="animable"></path><polygon points="111.4 241.43 111.12 241.22 124.58 222.79 124.86 223 111.4 241.43" style="fill: rgb(38, 50, 56); transform-origin: 117.99px 232.11px;" id="elr95zgxddwpc" class="animable"></polygon><path d="M125.79,240.77a2.4,2.4,0,1,1,3.35-.52A2.4,2.4,0,0,1,125.79,240.77Z" style="fill: rgb(38, 50, 56); transform-origin: 127.204px 238.831px;" id="eldedgw6043lq" class="animable"></path><path d="M107.36,227.31a2.4,2.4,0,1,1,3.35-.52A2.4,2.4,0,0,1,107.36,227.31Z" style="fill: rgb(38, 50, 56); transform-origin: 108.774px 225.371px;" id="elhto4itd8ouf" class="animable"></path><polygon points="127.1 238.98 108.67 225.52 108.88 225.23 127.31 238.7 127.1 238.98" style="fill: rgb(38, 50, 56); transform-origin: 117.99px 232.105px;" id="elssmq23xzn9r" class="animable"></polygon></g><defs>     <filter id="active" height="200%">         <feMorphology in="SourceAlpha" result="DILATED" operator="dilate" radius="2"></feMorphology>                <feFlood flood-color="#32DFEC" flood-opacity="1" result="PINK"></feFlood>        <feComposite in="PINK" in2="DILATED" operator="in" result="OUTLINE"></feComposite>        <feMerge>            <feMergeNode in="OUTLINE"></feMergeNode>            <feMergeNode in="SourceGraphic"></feMergeNode>        </feMerge>    </filter>    <filter id="hover" height="200%">        <feMorphology in="SourceAlpha" result="DILATED" operator="dilate" radius="2"></feMorphology>                <feFlood flood-color="#ff0000" flood-opacity="0.5" result="PINK"></feFlood>        <feComposite in="PINK" in2="DILATED" operator="in" result="OUTLINE"></feComposite>        <feMerge>            <feMergeNode in="OUTLINE"></feMergeNode>            <feMergeNode in="SourceGraphic"></feMergeNode>        </feMerge>            <feColorMatrix type="matrix" values="0   0   0   0   0                0   1   0   0   0                0   0   0   0   0                0   0   0   1   0 "></feColorMatrix>    </filter></defs></svg>